# xmcd CD database file
#
# Track frame offsets:
#	150
#	15500
#	29975
#	45195
#	58633
#	71875
#	85706
#	99092
#	112922
#	124045
#	134878
#	146148
#	158482
#	171659
#	185363
#
# Disc length: 2655 seconds
#
# Revision: 0
# Processed by: cddbd v1.5.2PL0 Copyright (c) Steve Scherf et al.
# Submitted via: CDex 1.70beta2
#
DISCID=ce0a5d0f
DTITLE=Sarah Vaughan - Legends Forever Vol.1
DYEAR=1947
DGENRE=Jazz
TTITLE0=Lover man
TTITLE1=Penthouse serenade
TTITLE2=Time and again
TTITLE3=I've got a crush on you
TTITLE4=All too soon
TTITLE5=Tenderly
TTITLE6=Don't worry about me
TTITLE7=September song
TTITLE8=No smoke blues
TTITLE9=I'm gonna sit right down and write myself a letter
TTITLE10=I can't get started
TTITLE11=I don't stand a ghost of a chance with you
TTITLE12=I cover the waterfront
TTITLE13=I could make you love me
TTITLE14=You go to my head
EXTD=YEAR: 1947
EXTT0=
EXTT1=
EXTT2=
EXTT3=
EXTT4=
EXTT5=
EXTT6=
EXTT7=
EXTT8=
EXTT9=
EXTT10=
EXTT11=
EXTT12=
EXTT13=
EXTT14=
PLAYORDER=
